<svg width="24" height="24" viewBox="0 0 24 24" fill="none" xmlns="http://www.w3.org/2000/svg">
<path d="M13.5625 2.33251C18.271 0.450006 20.695 4.71801 21.3525 7.79251M20.5435 8.41001C21.649 10.9445 20.4505 13.3635 20.029 15.859M19.147 16.487C18.0365 18.477 13.8115 21.2405 12 22.5M12.0885 2.82851C9.10202 -0.315494 5.37502 2.67201 3.79452 6.07701M4.94152 6.34601C3.39902 8.39351 2.10802 11.6275 2.87502 14.2435M4.32402 14.872C4.70052 17.562 8.69952 19.891 10.059 21.962M14.936 16.402C15.66 15.2985 15.2275 13.59 16.421 12.7305C17.226 12.2105 18.5945 12.646 18.9385 11.4885C19.076 10.6135 17.646 9.62851 17.2635 8.93301C16.231 7.78701 16.2615 6.72101 14.945 5.82251C13.918 5.13751 13.0395 6.13401 12.145 6.43851C11.3265 6.20601 10.86 5.08451 9.89352 5.24501C8.55302 5.57301 8.18352 7.06751 7.42252 8.05601C6.74552 8.93551 5.31052 9.74051 5.56652 10.8205C5.81852 11.8825 7.99602 11.326 8.41952 12.4295C9.37202 13.756 9.01102 15.0725 9.72252 16.1935C10.2625 17.0445 10.7575 19.5205 11.8875 18.3045C12.1945 18.593 12.845 18.5835 13.021 18.349C13.8655 18.854 14.4365 17.163 14.936 16.402Z" stroke="currentColor" stroke-width="0.5" stroke-linecap="round" stroke-linejoin="round"/>
<path d="M12.6546 14.5175L12.5046 15.891C12.5046 15.891 12.8166 16.025 13.4731 15.6405C14.1296 15.2555 14.045 15.3207 14.045 15.3207M13.4866 13.73C13.2784 13.8934 13.0647 14.0498 12.8461 14.199C12.7476 14.255 12.6361 14.3515 12.5341 14.242C12.2638 14.0978 12.0243 13.9021 11.8291 13.666C11.7756 13.581 11.6491 13.495 11.6511 13.3995C11.7561 13.3705 11.8701 13.372 11.9791 13.3595C12.1801 13.356 12.3816 13.368 12.5826 13.3685C12.8071 13.395 13.0341 13.379 13.2581 13.412C13.4066 13.434 13.5596 13.442 13.7031 13.4865C13.7556 13.5435 13.6016 13.5945 13.5756 13.65C13.5464 13.6772 13.5167 13.7038 13.4866 13.73ZM10.1666 9.281C10.0531 9.2165 9.91812 9.205 9.79012 9.202C9.64012 9.207 9.51862 9.311 9.42612 9.419C9.37638 9.48766 9.34319 9.56689 9.32914 9.6505C9.31509 9.73412 9.32056 9.81985 9.34512 9.901C9.41212 10.076 9.54662 10.2345 9.73112 10.289C9.85412 10.334 10.0061 10.338 10.1101 10.2475C10.2766 10.121 10.3751 9.9145 10.3861 9.7075C10.3861 9.6505 10.3771 9.5935 10.3571 9.511C10.3371 9.4285 10.2651 9.334 10.1666 9.281ZM14.9026 10.52C14.9651 10.5353 15.0306 10.5331 15.0919 10.5136C15.1532 10.4941 15.2079 10.4581 15.2501 10.4095C15.4456 10.21 15.5536 9.889 15.4341 9.6235C15.3746 9.483 15.2276 9.4125 15.0841 9.389C14.8926 9.3175 14.6666 9.4105 14.5651 9.584C14.4596 9.727 14.3921 9.911 14.4426 10.088C14.4826 10.314 14.6836 10.4795 14.9026 10.52Z" stroke="currentColor" stroke-width="0.5" stroke-linecap="round" stroke-linejoin="round"/>
<path d="M12.5179 15.888C12.5179 15.888 11.9628 15.8611 11.4744 15.6827C10.985 15.5039 10.8745 15.3687 10.8745 15.3687" stroke="currentColor" stroke-width="0.5" stroke-linecap="round" stroke-linejoin="round"/>
</svg>
